<svg xmlns="http://www.w3.org/2000/svg" viewBox="220 220 1580 1580">
  <path fill="#E0E0E0" class="fil0" d="M479.255 256h1089.49C1691.537 256 1792 356.46 1792 479.254v1089.49c0 122.79-100.462 223.256-223.255 223.256H479.255C356.465 1792 256 1691.537 256 1568.746V479.256C256 356.462 356.463 256 479.254 256z" id="_251374848"/>
  <path fill="#1D75CE" class="fil1" d="M1189.81 1202.02c-47.27-47.268-76.51-112.572-76.51-184.703 0-72.138 29.237-137.445 76.508-184.716 47.27-47.27 112.578-76.505 184.716-76.505 72.13 0 137.433 29.238 184.703 76.508 47.268 47.272 76.506 112.58 76.506 184.715v.002c0 72.13-29.237 137.432-76.506 184.702-47.27 47.27-112.573 76.506-184.703 76.506-72.137 0-137.444-29.237-184.714-76.506z" id="_251374776"/>
  <path fill="#FF0084" class="fil2" d="M546.834 1202.02c-47.27-47.268-76.51-112.572-76.51-184.703 0-72.138 29.24-137.445 76.51-184.716 47.27-47.27 112.577-76.505 184.715-76.505 72.13 0 137.43 29.238 184.7 76.508 47.27 47.272 76.506 112.58 76.506 184.715v.002c0 72.13-29.237 137.432-76.506 184.702-47.27 47.27-112.572 76.506-184.702 76.506-72.138 0-137.445-29.237-184.716-76.506z" id="_251375088"/>
</svg>
