<svg xmlns="http://www.w3.org/2000/svg" viewBox="0 0 1000 1000">
  <path d="M261 791c-3 4-8 3-13-2s-6-9-3-12c3-4 8-3 13 2s6 9 3 12zm-27-39c4 5 4 9 0 12-3 3-7 1-11-4s-4-9 0-11c4-3 8-2 11 4zm-39-38c-2 3-5 3-8 1-4-2-6-5-4-8 1-2 4-2 8-1 4 2 6 5 5 8zm20 22c-3 3-6 2-10-2-4-5-4-8-1-10 3-3 6-2 10 2 4 5 4 8 1 10zm82 72c-2 5-6 6-12 4-7-2-10-5-8-10s6-6 12-4c7 2 10 6 8 10zm40 3c0 5-3 7-10 7-7 1-11-1-11-7 0-5 3-7 10-7 7-1 11 2 11 7zm37-6c1 4-2 7-9 9s-11 0-11-5c-1-5 2-8 9-10 7-1 11 1 12 6zm616-611v613c0 51-18 94-54 130s-79 54-130 54H663c-7 0-12 0-16-1-4 0-8-1-12-3-5-2-8-5-10-9s-3-10-3-18V807c0-41-11-71-33-91 24-3 46-6 65-11s39-13 60-25c21-11 38-26 52-42 14-17 25-39 34-67s13-60 13-96c0-51-17-95-50-131 16-39 14-82-5-130-12-4-29-1-52 7-22 9-42 18-59 28l-24 15c-40-11-80-17-122-17s-83 6-122 17c-7-5-16-10-27-17s-29-15-53-25-42-12-55-9c-19 48-20 92-4 130-34 36-50 80-50 131 0 36 4 68 13 96s20 50 34 67 31 31 51 43c21 12 41 20 60 25s41 9 65 12c-17 15-27 37-31 66-9 4-18 7-29 10-10 2-22 3-36 3s-28-5-42-14-26-22-35-40c-8-14-18-25-31-33-12-8-23-14-32-15l-13-2c-9 0-15 1-18 3s-4 4-3 7 3 6 6 9 5 6 8 8l5 3c9 4 19 12 28 24s16 23 20 33l6 15c6 16 15 29 28 39s28 16 43 19 30 4 44 5c14 0 26-1 35-2l15-3v109c0 9-2 17-7 21s-9 8-14 8c-5 1-12 1-21 1H194c-51 0-94-18-130-54s-54-80-54-131V194c0-51 18-94 54-130s79-54 130-54h613c51 0 94 18 130 54s54 79 54 130z"/>
</svg>
